<svg id="Capa_1" data-name="Capa 1" xmlns="http://www.w3.org/2000/svg" viewBox="0 0 51.47 77.63"><defs><style>.cls-1{fill:#e4c6d6;}</style></defs><path class="cls-1" d="M62.62,34.71v4.54a1,1,0,0,1-.21.64h0L41.66,68.34a1.54,1.54,0,0,1-2.52,0l-19-28.37,0,0a1.08,1.08,0,0,1-.18-.6V34.69c2.75,2,7.35,3.54,12.92,4.33,0,.19,0,.38,0,.57a7.44,7.44,0,0,0,14.87,0c0-.11,0-.22,0-.33C54.18,38.59,59.55,36.91,62.62,34.71Z" transform="translate(-14.68 -1.04)"/><ellipse class="cls-1" cx="25.68" cy="71.1" rx="6.02" ry="1.29"/><path class="cls-1" d="M30.09,19.34V36.76A33.58,33.58,0,0,1,23.56,35V19.34Z" transform="translate(-14.68 -1.04)"/><path class="cls-1" d="M37.34,13.39v24.4A56.48,56.48,0,0,1,30.81,37V13.39Z" transform="translate(-14.68 -1.04)"/><path class="cls-1" d="M44.64,7l-.11,30.85c-1.05,0-2.12.08-3.21.08s-2.24,0-3.32-.11L38.1,7l3.14-1.65Z" transform="translate(-14.68 -1.04)"/><rect class="cls-1" x="34.76" y="18.74" width="3.33" height="3.28"/><rect class="cls-1" x="34.81" y="23.07" width="3.33" height="3.28"/><rect class="cls-1" x="38.96" y="18.7" width="3.33" height="3.28"/><rect class="cls-1" x="39.01" y="23.03" width="3.33" height="3.28"/><path class="cls-1" d="M66.15,69.49c0,5.07-11.52,9.18-25.74,9.18s-25.73-4.11-25.73-9.18a3.41,3.41,0,0,1,.12-.89c1,4.75,12.1,8.49,25.66,8.49,13.37,0,24.36-3.64,25.62-8.29A4,4,0,0,1,66.15,69.49Z" transform="translate(-14.68 -1.04)"/><path class="cls-1" d="M23.07,34.69l-.13-20.18L41.18,4.38l18.34,9.9.13,20.38a10.17,10.17,0,0,0,3-2.33l-.13-19.74L41.18,1,20,12.85l.13,19.6A10.4,10.4,0,0,0,23.07,34.69Z" transform="translate(-14.68 -1.04)"/></svg>