<svg id="Capa_1" data-name="Capa 1" xmlns="http://www.w3.org/2000/svg" viewBox="0 0 453.6 139.85"><defs><style>.cls-1,.cls-2{fill:#9e1460;}.cls-2{font-size:69px;font-family:OCRAExtended, OCR A Extended;letter-spacing:-0.08em;}</style></defs><path class="cls-1" d="M109.38,62.62v8.19A1.94,1.94,0,0,1,109,72h0L71.62,123.21a2.78,2.78,0,0,1-4.55-.09L32.9,72l0-.07a2,2,0,0,1-.33-1.08V62.6C37.47,66.17,45.76,69,55.8,70.39c0,.34,0,.68,0,1a13.4,13.4,0,1,0,26.79,0c0-.19,0-.39,0-.58C94.16,69.61,103.84,66.6,109.38,62.62Z" transform="translate(-23.01 -1.97)"/><ellipse class="cls-1" cx="46.26" cy="128.1" rx="10.85" ry="2.32"/><path class="cls-1" d="M50.77,34.93v31.4A61.14,61.14,0,0,1,39,63.11V34.93Z" transform="translate(-23.01 -1.97)"/><path class="cls-1" d="M63.83,24.22v44a101.39,101.39,0,0,1-11.77-1.39V24.22Z" transform="translate(-23.01 -1.97)"/><path class="cls-1" d="M77,12.71l-.19,55.58c-1.89.09-3.82.14-5.78.13s-4-.07-6-.19l.17-55.57,5.66-3Z" transform="translate(-23.01 -1.97)"/><rect class="cls-1" x="62.61" y="33.76" width="6" height="5.91"/><rect class="cls-1" x="62.71" y="41.57" width="6" height="5.91"/><rect class="cls-1" x="70.19" y="33.68" width="6" height="5.91"/><rect class="cls-1" x="70.28" y="41.49" width="6" height="5.91"/><path class="cls-1" d="M115.73,125.29c0,9.13-20.75,16.54-46.36,16.54S23,134.42,23,125.29a6.22,6.22,0,0,1,.21-1.6C25,132.24,45,139,69.46,139c24.09,0,43.89-6.55,46.15-14.93A6.43,6.43,0,0,1,115.73,125.29Z" transform="translate(-23.01 -1.97)"/><path class="cls-1" d="M38.12,62.59l-.24-36.36L70.76,8l33,17.84.24,36.7a18.31,18.31,0,0,0,5.42-4.19l-.23-35.56L70.76,2,32.53,23.24l.23,35.32A18.86,18.86,0,0,0,38.12,62.59Z" transform="translate(-23.01 -1.97)"/><text class="cls-2" transform="translate(92.73 91.5)">CATOVATECH</text></svg>